<mxfile host="Electron" agent="Mozilla/5.0 (Windows NT 10.0; Win64; x64) AppleWebKit/537.36 (KHTML, like Gecko) draw.io/24.7.8 Chrome/128.0.6613.36 Electron/32.0.1 Safari/537.36" version="24.7.8">
  <diagram id="0WVyFlMRHMecTkCs-XGT" name="Page-1">
    <mxGraphModel dx="1036" dy="654" grid="1" gridSize="10" guides="1" tooltips="1" connect="1" arrows="1" fold="1" page="1" pageScale="1" pageWidth="850" pageHeight="1100" math="0" shadow="0">
      <root>
        <mxCell id="0" />
        <mxCell id="1" parent="0" />
        <mxCell id="lFeDq2B8I5nMRj2OJSu2-8" value="" style="swimlane;childLayout=stackLayout;resizeParent=1;resizeParentMax=0;startSize=20;html=1;strokeColor=default;" parent="1" vertex="1">
          <mxGeometry x="130" y="10" width="490" height="950" as="geometry" />
        </mxCell>
        <mxCell id="lFeDq2B8I5nMRj2OJSu2-22" style="edgeStyle=orthogonalEdgeStyle;rounded=0;orthogonalLoop=1;jettySize=auto;html=1;entryX=0;entryY=0.5;entryDx=0;entryDy=0;" parent="lFeDq2B8I5nMRj2OJSu2-8" source="lFeDq2B8I5nMRj2OJSu2-18" target="lFeDq2B8I5nMRj2OJSu2-21" edge="1">
          <mxGeometry relative="1" as="geometry" />
        </mxCell>
        <mxCell id="lFeDq2B8I5nMRj2OJSu2-26" style="edgeStyle=orthogonalEdgeStyle;rounded=0;orthogonalLoop=1;jettySize=auto;html=1;entryX=0.5;entryY=1;entryDx=0;entryDy=0;" parent="lFeDq2B8I5nMRj2OJSu2-8" source="lFeDq2B8I5nMRj2OJSu2-23" target="lFeDq2B8I5nMRj2OJSu2-18" edge="1">
          <mxGeometry relative="1" as="geometry" />
        </mxCell>
        <mxCell id="lFeDq2B8I5nMRj2OJSu2-30" style="edgeStyle=orthogonalEdgeStyle;rounded=0;orthogonalLoop=1;jettySize=auto;html=1;exitX=0.5;exitY=1;exitDx=0;exitDy=0;entryX=0.969;entryY=0.706;entryDx=0;entryDy=0;entryPerimeter=0;" parent="lFeDq2B8I5nMRj2OJSu2-8" source="lFeDq2B8I5nMRj2OJSu2-23" target="lFeDq2B8I5nMRj2OJSu2-29" edge="1">
          <mxGeometry relative="1" as="geometry" />
        </mxCell>
        <mxCell id="6wSAbunEqRBJUhWE7Zqi-37" style="edgeStyle=orthogonalEdgeStyle;rounded=0;orthogonalLoop=1;jettySize=auto;html=1;exitX=1;exitY=0.5;exitDx=0;exitDy=0;entryX=0;entryY=0.5;entryDx=0;entryDy=0;" parent="lFeDq2B8I5nMRj2OJSu2-8" source="6wSAbunEqRBJUhWE7Zqi-1" target="6wSAbunEqRBJUhWE7Zqi-12" edge="1">
          <mxGeometry relative="1" as="geometry" />
        </mxCell>
        <mxCell id="6wSAbunEqRBJUhWE7Zqi-42" style="edgeStyle=orthogonalEdgeStyle;rounded=0;orthogonalLoop=1;jettySize=auto;html=1;exitX=1;exitY=0.5;exitDx=0;exitDy=0;entryX=0;entryY=0.5;entryDx=0;entryDy=0;" parent="lFeDq2B8I5nMRj2OJSu2-8" source="6wSAbunEqRBJUhWE7Zqi-36" target="6wSAbunEqRBJUhWE7Zqi-41" edge="1">
          <mxGeometry relative="1" as="geometry" />
        </mxCell>
        <mxCell id="lFeDq2B8I5nMRj2OJSu2-9" value="User" style="swimlane;startSize=20;html=1;fillColor=#dae8fc;strokeColor=#6c8ebf;" parent="lFeDq2B8I5nMRj2OJSu2-8" vertex="1">
          <mxGeometry y="20" width="130" height="930" as="geometry" />
        </mxCell>
        <mxCell id="lFeDq2B8I5nMRj2OJSu2-34" style="edgeStyle=orthogonalEdgeStyle;rounded=0;orthogonalLoop=1;jettySize=auto;html=1;entryX=0.5;entryY=0;entryDx=0;entryDy=0;" parent="lFeDq2B8I5nMRj2OJSu2-9" source="lFeDq2B8I5nMRj2OJSu2-12" target="lFeDq2B8I5nMRj2OJSu2-18" edge="1">
          <mxGeometry relative="1" as="geometry" />
        </mxCell>
        <mxCell id="lFeDq2B8I5nMRj2OJSu2-12" value="" style="ellipse;html=1;shape=startState;fillColor=#0B0C0D;strokeColor=#000000;" parent="lFeDq2B8I5nMRj2OJSu2-9" vertex="1">
          <mxGeometry x="50" y="24" width="20" height="20" as="geometry" />
        </mxCell>
        <mxCell id="lFeDq2B8I5nMRj2OJSu2-18" value="Login" style="rounded=1;whiteSpace=wrap;html=1;arcSize=40;fillColor=#dae8fc;strokeColor=#6c8ebf;" parent="lFeDq2B8I5nMRj2OJSu2-9" vertex="1">
          <mxGeometry x="10" y="60" width="100" height="40" as="geometry" />
        </mxCell>
        <mxCell id="lFeDq2B8I5nMRj2OJSu2-33" style="edgeStyle=orthogonalEdgeStyle;rounded=0;orthogonalLoop=1;jettySize=auto;html=1;entryX=0.5;entryY=0;entryDx=0;entryDy=0;" parent="lFeDq2B8I5nMRj2OJSu2-9" source="lFeDq2B8I5nMRj2OJSu2-29" target="lFeDq2B8I5nMRj2OJSu2-32" edge="1">
          <mxGeometry relative="1" as="geometry" />
        </mxCell>
        <mxCell id="lFeDq2B8I5nMRj2OJSu2-29" value="Browse Resource" style="rounded=1;whiteSpace=wrap;html=1;arcSize=40;fillColor=#dae8fc;strokeColor=#6c8ebf;" parent="lFeDq2B8I5nMRj2OJSu2-9" vertex="1">
          <mxGeometry x="15" y="160" width="100" height="40" as="geometry" />
        </mxCell>
        <mxCell id="6wSAbunEqRBJUhWE7Zqi-2" style="edgeStyle=orthogonalEdgeStyle;rounded=0;orthogonalLoop=1;jettySize=auto;html=1;exitX=0.5;exitY=1;exitDx=0;exitDy=0;entryX=0.5;entryY=0;entryDx=0;entryDy=0;" parent="lFeDq2B8I5nMRj2OJSu2-9" source="lFeDq2B8I5nMRj2OJSu2-32" target="6wSAbunEqRBJUhWE7Zqi-1" edge="1">
          <mxGeometry relative="1" as="geometry" />
        </mxCell>
        <mxCell id="lFeDq2B8I5nMRj2OJSu2-32" value="Select Resource" style="rounded=1;whiteSpace=wrap;html=1;arcSize=40;fillColor=#dae8fc;strokeColor=#6c8ebf;" parent="lFeDq2B8I5nMRj2OJSu2-9" vertex="1">
          <mxGeometry x="15" y="220" width="100" height="40" as="geometry" />
        </mxCell>
        <mxCell id="6wSAbunEqRBJUhWE7Zqi-1" value="Make Booking Request" style="rounded=1;whiteSpace=wrap;html=1;arcSize=40;fillColor=#dae8fc;strokeColor=#6c8ebf;" parent="lFeDq2B8I5nMRj2OJSu2-9" vertex="1">
          <mxGeometry x="15" y="290" width="100" height="40" as="geometry" />
        </mxCell>
        <mxCell id="6wSAbunEqRBJUhWE7Zqi-87" style="edgeStyle=orthogonalEdgeStyle;rounded=0;orthogonalLoop=1;jettySize=auto;html=1;exitX=0.5;exitY=1;exitDx=0;exitDy=0;entryX=0.5;entryY=0;entryDx=0;entryDy=0;" parent="lFeDq2B8I5nMRj2OJSu2-9" source="6wSAbunEqRBJUhWE7Zqi-83" target="6wSAbunEqRBJUhWE7Zqi-86" edge="1">
          <mxGeometry relative="1" as="geometry" />
        </mxCell>
        <mxCell id="6wSAbunEqRBJUhWE7Zqi-83" value="Receive Notification" style="rounded=1;whiteSpace=wrap;html=1;arcSize=40;fillColor=#dae8fc;strokeColor=#6c8ebf;" parent="lFeDq2B8I5nMRj2OJSu2-9" vertex="1">
          <mxGeometry x="10" y="660" width="100" height="40" as="geometry" />
        </mxCell>
        <mxCell id="6wSAbunEqRBJUhWE7Zqi-106" style="edgeStyle=orthogonalEdgeStyle;rounded=0;orthogonalLoop=1;jettySize=auto;html=1;exitX=0;exitY=0.5;exitDx=0;exitDy=0;entryX=0;entryY=0.5;entryDx=0;entryDy=0;" parent="lFeDq2B8I5nMRj2OJSu2-9" source="6wSAbunEqRBJUhWE7Zqi-86" target="6wSAbunEqRBJUhWE7Zqi-103" edge="1">
          <mxGeometry relative="1" as="geometry">
            <Array as="points">
              <mxPoint x="10" y="760" />
              <mxPoint x="10" y="900" />
              <mxPoint x="45" y="900" />
            </Array>
          </mxGeometry>
        </mxCell>
        <mxCell id="6wSAbunEqRBJUhWE7Zqi-108" style="edgeStyle=orthogonalEdgeStyle;rounded=0;orthogonalLoop=1;jettySize=auto;html=1;exitX=0.5;exitY=1;exitDx=0;exitDy=0;" parent="lFeDq2B8I5nMRj2OJSu2-9" source="6wSAbunEqRBJUhWE7Zqi-86" target="6wSAbunEqRBJUhWE7Zqi-107" edge="1">
          <mxGeometry relative="1" as="geometry" />
        </mxCell>
        <mxCell id="6wSAbunEqRBJUhWE7Zqi-86" value="Issue ?" style="rhombus;whiteSpace=wrap;html=1;fillColor=#ffe6cc;strokeColor=#d79b00;" parent="lFeDq2B8I5nMRj2OJSu2-9" vertex="1">
          <mxGeometry x="20" y="740" width="80" height="40" as="geometry" />
        </mxCell>
        <mxCell id="6wSAbunEqRBJUhWE7Zqi-103" value="" style="ellipse;html=1;shape=endState;fillColor=#000000;strokeColor=#0d0d0d;" parent="lFeDq2B8I5nMRj2OJSu2-9" vertex="1">
          <mxGeometry x="70" y="890" width="30" height="30" as="geometry" />
        </mxCell>
        <mxCell id="6wSAbunEqRBJUhWE7Zqi-107" value="Report Issue" style="rounded=1;whiteSpace=wrap;html=1;arcSize=40;fillColor=#dae8fc;strokeColor=#6c8ebf;" parent="lFeDq2B8I5nMRj2OJSu2-9" vertex="1">
          <mxGeometry x="15" y="830" width="100" height="40" as="geometry" />
        </mxCell>
        <mxCell id="6wSAbunEqRBJUhWE7Zqi-166" value="Yes" style="text;html=1;align=center;verticalAlign=middle;resizable=0;points=[];autosize=1;strokeColor=none;fillColor=none;" parent="lFeDq2B8I5nMRj2OJSu2-9" vertex="1">
          <mxGeometry x="60" y="780" width="40" height="30" as="geometry" />
        </mxCell>
        <mxCell id="6wSAbunEqRBJUhWE7Zqi-168" value="No" style="text;html=1;align=center;verticalAlign=middle;resizable=0;points=[];autosize=1;strokeColor=none;fillColor=none;" parent="lFeDq2B8I5nMRj2OJSu2-9" vertex="1">
          <mxGeometry x="5" y="760" width="40" height="30" as="geometry" />
        </mxCell>
        <mxCell id="lFeDq2B8I5nMRj2OJSu2-10" value="System" style="swimlane;startSize=20;html=1;fillColor=#ffe6cc;strokeColor=#d79b00;" parent="lFeDq2B8I5nMRj2OJSu2-8" vertex="1">
          <mxGeometry x="130" y="20" width="120" height="930" as="geometry" />
        </mxCell>
        <mxCell id="lFeDq2B8I5nMRj2OJSu2-28" style="edgeStyle=orthogonalEdgeStyle;rounded=0;orthogonalLoop=1;jettySize=auto;html=1;entryX=0.5;entryY=0;entryDx=0;entryDy=0;" parent="lFeDq2B8I5nMRj2OJSu2-10" source="lFeDq2B8I5nMRj2OJSu2-21" target="lFeDq2B8I5nMRj2OJSu2-23" edge="1">
          <mxGeometry relative="1" as="geometry" />
        </mxCell>
        <mxCell id="lFeDq2B8I5nMRj2OJSu2-21" value="Check Credential" style="rounded=1;whiteSpace=wrap;html=1;arcSize=40;fillColor=#ffe6cc;strokeColor=#d79b00;" parent="lFeDq2B8I5nMRj2OJSu2-10" vertex="1">
          <mxGeometry x="10" y="60" width="100" height="40" as="geometry" />
        </mxCell>
        <mxCell id="lFeDq2B8I5nMRj2OJSu2-23" value="Success ?" style="rhombus;whiteSpace=wrap;html=1;fillColor=#ffe6cc;strokeColor=#d79b00;" parent="lFeDq2B8I5nMRj2OJSu2-10" vertex="1">
          <mxGeometry x="20" y="120" width="80" height="40" as="geometry" />
        </mxCell>
        <mxCell id="lFeDq2B8I5nMRj2OJSu2-31" value="Yes" style="text;html=1;align=center;verticalAlign=middle;resizable=0;points=[];autosize=1;strokeColor=none;fillColor=none;" parent="lFeDq2B8I5nMRj2OJSu2-10" vertex="1">
          <mxGeometry x="13" y="165" width="40" height="30" as="geometry" />
        </mxCell>
        <mxCell id="6wSAbunEqRBJUhWE7Zqi-38" style="edgeStyle=orthogonalEdgeStyle;rounded=0;orthogonalLoop=1;jettySize=auto;html=1;exitX=0.5;exitY=1;exitDx=0;exitDy=0;entryX=0.5;entryY=0;entryDx=0;entryDy=0;" parent="lFeDq2B8I5nMRj2OJSu2-10" source="6wSAbunEqRBJUhWE7Zqi-12" edge="1">
          <mxGeometry relative="1" as="geometry">
            <mxPoint x="63" y="350" as="targetPoint" />
          </mxGeometry>
        </mxCell>
        <mxCell id="6wSAbunEqRBJUhWE7Zqi-12" value="Receive Booking Request" style="rounded=1;whiteSpace=wrap;html=1;arcSize=40;fillColor=#dae8fc;strokeColor=#6c8ebf;" parent="lFeDq2B8I5nMRj2OJSu2-10" vertex="1">
          <mxGeometry x="13" y="290" width="100" height="40" as="geometry" />
        </mxCell>
        <mxCell id="6wSAbunEqRBJUhWE7Zqi-36" value="Notify Admin" style="rounded=1;whiteSpace=wrap;html=1;arcSize=40;fillColor=#dae8fc;strokeColor=#6c8ebf;" parent="lFeDq2B8I5nMRj2OJSu2-10" vertex="1">
          <mxGeometry x="10" y="350" width="100" height="40" as="geometry" />
        </mxCell>
        <mxCell id="6wSAbunEqRBJUhWE7Zqi-81" value="Notify User" style="rounded=1;whiteSpace=wrap;html=1;arcSize=40;fillColor=#dae8fc;strokeColor=#6c8ebf;" parent="lFeDq2B8I5nMRj2OJSu2-10" vertex="1">
          <mxGeometry x="10" y="660" width="100" height="40" as="geometry" />
        </mxCell>
        <mxCell id="6wSAbunEqRBJUhWE7Zqi-88" value="Notify Admin" style="rounded=1;whiteSpace=wrap;html=1;arcSize=40;fillColor=#dae8fc;strokeColor=#6c8ebf;" parent="lFeDq2B8I5nMRj2OJSu2-10" vertex="1">
          <mxGeometry x="10" y="740" width="100" height="40" as="geometry" />
        </mxCell>
        <mxCell id="lFeDq2B8I5nMRj2OJSu2-11" value="Admin" style="swimlane;startSize=20;html=1;fillColor=#d5e8d4;strokeColor=#82b366;" parent="lFeDq2B8I5nMRj2OJSu2-8" vertex="1">
          <mxGeometry x="250" y="20" width="240" height="930" as="geometry" />
        </mxCell>
        <mxCell id="6wSAbunEqRBJUhWE7Zqi-44" style="edgeStyle=orthogonalEdgeStyle;rounded=0;orthogonalLoop=1;jettySize=auto;html=1;exitX=0.5;exitY=1;exitDx=0;exitDy=0;entryX=0.5;entryY=0;entryDx=0;entryDy=0;" parent="lFeDq2B8I5nMRj2OJSu2-11" source="6wSAbunEqRBJUhWE7Zqi-41" target="6wSAbunEqRBJUhWE7Zqi-43" edge="1">
          <mxGeometry relative="1" as="geometry" />
        </mxCell>
        <mxCell id="6wSAbunEqRBJUhWE7Zqi-41" value="Velidate Booking" style="rounded=1;whiteSpace=wrap;html=1;arcSize=40;fillColor=#dae8fc;strokeColor=#6c8ebf;" parent="lFeDq2B8I5nMRj2OJSu2-11" vertex="1">
          <mxGeometry x="70" y="420" width="100" height="40" as="geometry" />
        </mxCell>
        <mxCell id="6wSAbunEqRBJUhWE7Zqi-56" style="edgeStyle=orthogonalEdgeStyle;rounded=0;orthogonalLoop=1;jettySize=auto;html=1;exitX=0.5;exitY=1;exitDx=0;exitDy=0;entryX=0.5;entryY=0;entryDx=0;entryDy=0;" parent="lFeDq2B8I5nMRj2OJSu2-11" source="6wSAbunEqRBJUhWE7Zqi-43" target="6wSAbunEqRBJUhWE7Zqi-53" edge="1">
          <mxGeometry relative="1" as="geometry" />
        </mxCell>
        <mxCell id="6wSAbunEqRBJUhWE7Zqi-43" value="Approved ?" style="rhombus;whiteSpace=wrap;html=1;fillColor=#ffe6cc;strokeColor=#d79b00;" parent="lFeDq2B8I5nMRj2OJSu2-11" vertex="1">
          <mxGeometry x="70" y="490" width="80" height="40" as="geometry" />
        </mxCell>
        <mxCell id="6wSAbunEqRBJUhWE7Zqi-53" value="Make Bookig Status Approved" style="rounded=1;whiteSpace=wrap;html=1;arcSize=40;fillColor=#dae8fc;strokeColor=#6c8ebf;" parent="lFeDq2B8I5nMRj2OJSu2-11" vertex="1">
          <mxGeometry x="120" y="570" width="100" height="40" as="geometry" />
        </mxCell>
        <mxCell id="6wSAbunEqRBJUhWE7Zqi-54" value="Make Bookig Status Rejescted" style="rounded=1;whiteSpace=wrap;html=1;arcSize=40;fillColor=#dae8fc;strokeColor=#6c8ebf;" parent="lFeDq2B8I5nMRj2OJSu2-11" vertex="1">
          <mxGeometry x="10" y="570" width="100" height="40" as="geometry" />
        </mxCell>
        <mxCell id="6wSAbunEqRBJUhWE7Zqi-63" style="edgeStyle=orthogonalEdgeStyle;rounded=0;orthogonalLoop=1;jettySize=auto;html=1;exitX=0;exitY=0.5;exitDx=0;exitDy=0;entryX=0.418;entryY=0.04;entryDx=0;entryDy=0;entryPerimeter=0;" parent="lFeDq2B8I5nMRj2OJSu2-11" source="6wSAbunEqRBJUhWE7Zqi-43" target="6wSAbunEqRBJUhWE7Zqi-54" edge="1">
          <mxGeometry relative="1" as="geometry" />
        </mxCell>
        <mxCell id="6wSAbunEqRBJUhWE7Zqi-64" value="" style="shape=line;html=1;strokeWidth=6;strokeColor=#0D0000;fillColor=#130101;" parent="lFeDq2B8I5nMRj2OJSu2-11" vertex="1">
          <mxGeometry x="20" y="630" width="200" height="10" as="geometry" />
        </mxCell>
        <mxCell id="6wSAbunEqRBJUhWE7Zqi-66" style="edgeStyle=orthogonalEdgeStyle;rounded=0;orthogonalLoop=1;jettySize=auto;html=1;exitX=0.5;exitY=1;exitDx=0;exitDy=0;entryX=0.207;entryY=0.638;entryDx=0;entryDy=0;entryPerimeter=0;" parent="lFeDq2B8I5nMRj2OJSu2-11" source="6wSAbunEqRBJUhWE7Zqi-54" target="6wSAbunEqRBJUhWE7Zqi-64" edge="1">
          <mxGeometry relative="1" as="geometry" />
        </mxCell>
        <mxCell id="6wSAbunEqRBJUhWE7Zqi-67" style="edgeStyle=orthogonalEdgeStyle;rounded=0;orthogonalLoop=1;jettySize=auto;html=1;exitX=0.5;exitY=1;exitDx=0;exitDy=0;entryX=0.778;entryY=0.748;entryDx=0;entryDy=0;entryPerimeter=0;" parent="lFeDq2B8I5nMRj2OJSu2-11" source="6wSAbunEqRBJUhWE7Zqi-53" target="6wSAbunEqRBJUhWE7Zqi-64" edge="1">
          <mxGeometry relative="1" as="geometry" />
        </mxCell>
        <mxCell id="6wSAbunEqRBJUhWE7Zqi-94" style="edgeStyle=orthogonalEdgeStyle;rounded=0;orthogonalLoop=1;jettySize=auto;html=1;entryX=0.5;entryY=0;entryDx=0;entryDy=0;" parent="lFeDq2B8I5nMRj2OJSu2-11" source="6wSAbunEqRBJUhWE7Zqi-90" target="6wSAbunEqRBJUhWE7Zqi-91" edge="1">
          <mxGeometry relative="1" as="geometry" />
        </mxCell>
        <mxCell id="6wSAbunEqRBJUhWE7Zqi-90" value="Solve Issue" style="rounded=1;whiteSpace=wrap;html=1;arcSize=40;fillColor=#dae8fc;strokeColor=#6c8ebf;" parent="lFeDq2B8I5nMRj2OJSu2-11" vertex="1">
          <mxGeometry x="70" y="740" width="100" height="40" as="geometry" />
        </mxCell>
        <mxCell id="6wSAbunEqRBJUhWE7Zqi-91" value="Update Booking Status" style="rounded=1;whiteSpace=wrap;html=1;arcSize=40;fillColor=#dae8fc;strokeColor=#6c8ebf;" parent="lFeDq2B8I5nMRj2OJSu2-11" vertex="1">
          <mxGeometry x="70" y="820" width="100" height="40" as="geometry" />
        </mxCell>
        <mxCell id="6wSAbunEqRBJUhWE7Zqi-165" value="Yes" style="text;html=1;align=center;verticalAlign=middle;resizable=0;points=[];autosize=1;strokeColor=none;fillColor=none;" parent="lFeDq2B8I5nMRj2OJSu2-11" vertex="1">
          <mxGeometry x="130" y="520" width="40" height="30" as="geometry" />
        </mxCell>
        <mxCell id="6wSAbunEqRBJUhWE7Zqi-167" value="No" style="text;html=1;align=center;verticalAlign=middle;resizable=0;points=[];autosize=1;strokeColor=none;fillColor=none;" parent="lFeDq2B8I5nMRj2OJSu2-11" vertex="1">
          <mxGeometry x="45" y="505" width="40" height="30" as="geometry" />
        </mxCell>
        <mxCell id="6wSAbunEqRBJUhWE7Zqi-84" style="edgeStyle=orthogonalEdgeStyle;rounded=0;orthogonalLoop=1;jettySize=auto;html=1;exitX=0;exitY=0.5;exitDx=0;exitDy=0;entryX=1;entryY=0.5;entryDx=0;entryDy=0;" parent="lFeDq2B8I5nMRj2OJSu2-8" source="6wSAbunEqRBJUhWE7Zqi-81" target="6wSAbunEqRBJUhWE7Zqi-83" edge="1">
          <mxGeometry relative="1" as="geometry" />
        </mxCell>
        <mxCell id="6wSAbunEqRBJUhWE7Zqi-92" style="edgeStyle=orthogonalEdgeStyle;rounded=0;orthogonalLoop=1;jettySize=auto;html=1;exitX=1;exitY=0.5;exitDx=0;exitDy=0;" parent="lFeDq2B8I5nMRj2OJSu2-8" source="6wSAbunEqRBJUhWE7Zqi-88" target="6wSAbunEqRBJUhWE7Zqi-90" edge="1">
          <mxGeometry relative="1" as="geometry" />
        </mxCell>
        <mxCell id="6wSAbunEqRBJUhWE7Zqi-109" style="edgeStyle=orthogonalEdgeStyle;rounded=0;orthogonalLoop=1;jettySize=auto;html=1;exitX=1;exitY=0.5;exitDx=0;exitDy=0;entryX=0.25;entryY=1;entryDx=0;entryDy=0;" parent="lFeDq2B8I5nMRj2OJSu2-8" source="6wSAbunEqRBJUhWE7Zqi-107" target="6wSAbunEqRBJUhWE7Zqi-88" edge="1">
          <mxGeometry relative="1" as="geometry" />
        </mxCell>
        <mxCell id="lFeDq2B8I5nMRj2OJSu2-27" value="No" style="text;html=1;align=center;verticalAlign=middle;resizable=0;points=[];autosize=1;strokeColor=none;fillColor=none;" parent="1" vertex="1">
          <mxGeometry x="230" y="138" width="40" height="30" as="geometry" />
        </mxCell>
        <mxCell id="lFeDq2B8I5nMRj2OJSu2-37" value="Booking" style="swimlane;startSize=20;whiteSpace=wrap;html=1;fillColor=#f8cecc;strokeColor=#b85450;" parent="1" vertex="1">
          <mxGeometry x="620" y="30" width="170" height="930" as="geometry" />
        </mxCell>
        <mxCell id="6wSAbunEqRBJUhWE7Zqi-80" value="Send Booking Info to System" style="rounded=1;whiteSpace=wrap;html=1;arcSize=40;fillColor=#dae8fc;strokeColor=#6c8ebf;" parent="lFeDq2B8I5nMRj2OJSu2-37" vertex="1">
          <mxGeometry x="50" y="420" width="100" height="40" as="geometry" />
        </mxCell>
        <mxCell id="6wSAbunEqRBJUhWE7Zqi-65" value="" style="edgeStyle=orthogonalEdgeStyle;html=1;verticalAlign=bottom;endArrow=open;endSize=8;strokeColor=#121212;rounded=0;entryX=0;entryY=0.5;entryDx=0;entryDy=0;" parent="1" source="6wSAbunEqRBJUhWE7Zqi-64" target="6wSAbunEqRBJUhWE7Zqi-80" edge="1">
          <mxGeometry relative="1" as="geometry">
            <mxPoint x="500" y="700" as="targetPoint" />
            <Array as="points">
              <mxPoint x="500" y="690" />
              <mxPoint x="635" y="690" />
              <mxPoint x="635" y="470" />
            </Array>
          </mxGeometry>
        </mxCell>
        <mxCell id="6wSAbunEqRBJUhWE7Zqi-82" style="edgeStyle=orthogonalEdgeStyle;rounded=0;orthogonalLoop=1;jettySize=auto;html=1;entryX=1;entryY=0.75;entryDx=0;entryDy=0;" parent="1" source="6wSAbunEqRBJUhWE7Zqi-80" target="6wSAbunEqRBJUhWE7Zqi-81" edge="1">
          <mxGeometry relative="1" as="geometry">
            <Array as="points">
              <mxPoint x="720" y="720" />
            </Array>
          </mxGeometry>
        </mxCell>
        <mxCell id="6wSAbunEqRBJUhWE7Zqi-96" style="edgeStyle=orthogonalEdgeStyle;rounded=0;orthogonalLoop=1;jettySize=auto;html=1;exitX=1;exitY=0.5;exitDx=0;exitDy=0;entryX=0.75;entryY=1;entryDx=0;entryDy=0;" parent="1" source="6wSAbunEqRBJUhWE7Zqi-91" target="6wSAbunEqRBJUhWE7Zqi-80" edge="1">
          <mxGeometry relative="1" as="geometry">
            <mxPoint x="665" y="870" as="targetPoint" />
          </mxGeometry>
        </mxCell>
      </root>
    </mxGraphModel>
  </diagram>
</mxfile>
